# xmcd CD database file
#
# Track frame offsets:
#	150
#	27442
#	60555
#	90838
#	116767
#	142513
#	178985
#	205625
#	235608
#	264236
#
# Disc length: 3914 seconds
#
# Revision: 0
# Processed by: cddbd v1.5.1PL0 Copyright (c) Steve Scherf et al.
# Submitted via: CDex 1.51
#
DISCID=760f480a
DTITLE=Dave Ballou - Volition
DYEAR=1998
DGENRE=Jazz
TTITLE0=Antonio and Angelica
TTITLE1=Wish's
TTITLE2=Shagahmit
TTITLE3=Light blue
TTITLE4=Snow in cedar
TTITLE5=Volition
TTITLE6=26-2
TTITLE7=Skeptical
TTITLE8=Deni time
TTITLE9=Opening statement
EXTD=YEAR: 1998
EXTT0=
EXTT1=
EXTT2=
EXTT3=
EXTT4=
EXTT5=
EXTT6=
EXTT7=
EXTT8=
EXTT9=
PLAYORDER=
